<svg width="60" height="64" viewBox="0 0 60 64" fill="none" xmlns="http://www.w3.org/2000/svg">
<path d="M31.8327 63.5081C32.7041 63.2683 33.5614 62.7605 34.3906 61.886L47.6296 47.6397C45.0296 49.149 42.4858 50.4184 40.0404 51.4904C38.0868 52.3932 36.0771 53.2254 34.4608 53.6909C30.9614 56.9774 27.3635 59.7279 24.2153 60.9833C26.0002 61.8155 27.5181 62.5066 28.7408 63.0426C29.6824 63.4235 30.9051 63.7761 31.8327 63.5222" fill="#0A8FDC"/>
<path d="M0.0140542 47.8513C6.1979 51.6879 12.0023 54.8757 16.9213 57.4005C16.9213 57.4005 24.2997 57.2453 34.4609 53.6908C34.3625 53.719 34.2641 53.7472 34.1658 53.7755C33.7863 53.8742 33.2241 53.9306 32.5495 53.9306C24.8338 53.9306 0 47.8654 0 47.8654" fill="#50B2EB"/>
<path d="M34.461 53.6909C24.2998 57.2454 16.9354 57.4005 16.9214 57.4005C19.6479 58.797 22.1214 59.9959 24.2155 60.9833C27.3777 59.7279 30.9615 56.9774 34.461 53.6909Z" fill="#2FA2E4"/>
<path d="M34.461 53.6909C24.2998 57.2454 16.9354 57.4005 16.9214 57.4005C16.9214 57.4005 24.2998 57.2454 34.461 53.6909Z" fill="#0A8FDC"/>
<path d="M8.89637 20.332C8.65745 21.2065 8.6715 22.208 9.02286 23.3646L14.7008 41.9976C14.7008 38.9932 14.8694 36.1439 15.1645 33.478C15.3613 31.3199 15.6564 29.1618 16.05 27.5397C14.9678 22.8427 14.3916 18.3572 14.8835 14.9861C13.2672 16.1145 11.918 17.1019 10.8499 17.8918C10.0488 18.5265 9.13529 19.401 8.88232 20.3461" fill="#0A8FDC"/>
<path d="M21.6294 10.4301C19.0575 12.1086 16.7948 13.6461 14.8834 14.9861C14.7569 15.8183 14.7007 16.7069 14.7007 17.6661C14.7007 20.5859 15.2347 23.9994 16.0499 27.5398C16.5137 25.1419 17.0337 22.9556 17.5958 20.9949C19.1137 15.6491 20.7721 12.1086 21.3905 10.8956C21.3905 10.8956 21.4326 10.7969 21.4608 10.7545L21.5029 10.6699V10.6276H21.517C21.517 10.6276 21.531 10.5853 21.5451 10.5712C21.5591 10.5289 21.5872 10.5006 21.5872 10.4865V10.4583" fill="#2FA2E4"/>
<path d="M21.3906 10.8814C20.7863 12.0945 19.1138 15.6349 17.5959 20.9667C19.1138 15.6349 20.7722 12.0945 21.3906 10.8814ZM21.4609 10.7404C21.4609 10.7404 21.4187 10.825 21.3906 10.8814C21.4187 10.8391 21.4327 10.7827 21.4609 10.7404ZM21.503 10.6557L21.4609 10.7263L21.503 10.6557ZM21.5452 10.557C21.5452 10.557 21.5311 10.5852 21.5171 10.5993L21.5452 10.557Z" fill="#0A8FDC"/>
<path d="M57.4957 22.6311C56.8633 21.9964 55.9919 21.5027 54.8254 21.2206L35.9084 16.8339C38.5085 18.3431 40.8696 19.9088 43.0339 21.5027C44.7907 22.7581 46.5053 24.084 47.714 25.2547C52.2956 26.6652 56.4697 28.4002 59.126 30.5159C58.9573 28.5553 58.7887 26.8909 58.6341 25.565C58.4795 24.5494 58.1844 23.3223 57.4957 22.6311Z" fill="#0A8FDC"/>
<path d="M47.7141 25.2547C55.8655 32.3214 59.6742 38.6406 59.6883 38.6547C59.5337 35.5797 59.3369 32.8433 59.1261 30.516C56.4558 28.4002 52.2958 26.6652 47.7141 25.2547Z" fill="#2FA2E4"/>
<path d="M47.7 25.2547L47.9248 25.4663C51.3962 28.9503 59.899 58.1199 59.899 58.1199C60.1098 50.8275 59.9693 44.1839 59.6741 38.6547C59.5476 38.4431 55.7249 32.2086 47.7 25.2547Z" fill="#50B2EB"/>
<path d="M38.3118 0.5C31.9031 3.95578 26.2533 7.41157 21.6154 10.4301V10.4583C21.6154 10.4583 21.5873 10.5288 21.5732 10.5711L21.5451 10.6135V10.6417H21.517L21.4748 10.7404C21.4748 10.7404 21.4327 10.8391 21.4046 10.8815C20.8002 12.0945 19.1278 15.649 17.6099 20.9808C17.0618 22.9414 16.5278 25.1418 16.064 27.5397C16.0921 27.441 16.1202 27.3423 16.1342 27.2435C17.3991 22.4619 38.3118 0.5 38.3118 0.5Z" fill="#50B2EB"/>
</svg>
